<svg width="343" height="60" viewBox="0 0 343 60" fill="none" xmlns="http://www.w3.org/2000/svg">
<path d="M222.74 59.27H221.93L219.33 52.28L216.73 59.27H215.92L213.14 50.96H214.13L216.37 57.93L218.97 50.94H219.69L222.29 57.93L224.53 50.96H225.52L222.74 59.27Z" fill="white"/>
<path d="M234.23 55.33H227.49C227.58 57.3 228.69 58.61 230.57 58.61C231.64 58.63 232.69 58.25 233.49 57.53L233.94 58.19C233.94 58.19 232.9 59.44 230.48 59.44C228.06 59.44 226.5 57.65 226.5 55.1C226.5 52.56 228.33 50.8 230.54 50.8C232.75 50.8 234.3 52.45 234.3 54.69C234.29 54.91 234.27 55.12 234.23 55.33ZM230.47 51.62C228.41 51.62 227.57 53.36 227.51 54.52H233.34C233.35 53.44 232.55 51.62 230.49 51.62H230.47Z" fill="white"/>
<path d="M243.31 50.81C244.58 50.78 245.77 51.43 246.43 52.51V46.9H247.38V59.26H246.42V57.72C245.79 58.82 244.6 59.48 243.34 59.44C240.83 59.44 239.22 57.56 239.22 55.1C239.22 52.64 240.83 50.81 243.31 50.81ZM243.35 58.61C245.37 58.61 246.49 57.03 246.49 55.12C246.49 53.21 245.38 51.63 243.35 51.63C241.33 51.63 240.21 53.19 240.21 55.12C240.21 57.05 241.34 58.61 243.35 58.61Z" fill="white"/>
<path d="M254.94 59.27V58.11C254.25 58.96 253.22 59.45 252.12 59.45C250.51 59.45 249.34 58.37 249.34 56.94C249.34 55.51 250.42 54.52 252.65 54.43L254.93 54.34V53.89C254.93 52.37 253.91 51.61 252.6 51.61C251.73 51.61 250.88 51.86 250.15 52.33L249.79 51.65C250.61 51.11 251.58 50.81 252.57 50.81C254.89 50.81 255.89 52.14 255.89 54.34V59.27H254.94V59.27ZM252.57 55.2C250.83 55.29 250.28 56.04 250.28 56.94C250.28 57.84 250.96 58.64 252.3 58.64C253.38 58.61 254.37 58.04 254.94 57.12V55.06L252.57 55.2Z" fill="white"/>
<path d="M261.35 51.71C259.76 51.71 259.33 53.52 259.33 54.79V59.27H258.4V50.96H259.32V52.52C259.55 51.53 260.42 50.83 261.43 50.82C261.73 50.82 262.04 50.86 262.33 50.95L262.24 51.86C261.95 51.75 261.65 51.7 261.35 51.71Z" fill="white"/>
<path d="M270.78 55.33H264.04C264.13 57.3 265.24 58.61 267.12 58.61C268.2 58.63 269.24 58.25 270.04 57.53L270.49 58.19C270.49 58.19 269.45 59.44 267.03 59.44C264.61 59.44 263.05 57.65 263.05 55.1C263.05 52.56 264.88 50.8 267.08 50.8C269.28 50.8 270.85 52.45 270.85 54.69C270.84 54.91 270.82 55.12 270.78 55.33ZM267.02 51.62C264.96 51.62 264.12 53.36 264.06 54.52H269.88C269.89 53.44 269.09 51.62 267.03 51.62H267.02Z" fill="white"/>
<path d="M278.55 59.45C277.89 59.5 277.27 59.14 276.97 58.55C276.68 57.99 276.67 57.39 276.67 56.04V51.83H275.42V50.99H276.67V48.34H277.62V50.99H279.72V51.83H277.59V56.6C277.59 57.51 277.7 58.61 278.81 58.61C279.12 58.61 279.43 58.53 279.71 58.38L279.8 59.19C279.41 59.38 278.98 59.47 278.55 59.45Z" fill="white"/>
<path d="M285.04 59.45C282.66 59.48 280.7 57.57 280.67 55.19C280.64 52.81 282.55 50.85 284.93 50.82C287.31 50.79 289.27 52.7 289.3 55.08C289.3 55.1 289.3 55.13 289.3 55.15C289.37 57.46 287.55 59.38 285.25 59.45C285.18 59.45 285.11 59.45 285.04 59.45ZM285.04 51.62C283.03 51.62 281.78 53.18 281.78 55.11C281.78 57.04 283.03 58.6 285.04 58.6C287.05 58.6 288.32 57.02 288.32 55.11C288.32 53.2 287.06 51.62 285.04 51.62Z" fill="white"/>
<path d="M298.38 59.45C296.14 59.45 294.31 57.66 294.31 55.11C294.24 52.8 296.06 50.88 298.37 50.81C298.4 50.81 298.43 50.81 298.46 50.81C300.66 50.81 301.56 52.01 301.74 52.24L301.15 52.87C300.49 52.05 299.48 51.59 298.43 51.65C296.76 51.65 295.29 52.99 295.29 55.05C295.29 57.11 296.58 58.6 298.46 58.6C299.52 58.63 300.54 58.19 301.24 57.38L301.78 58.01C301.49 58.37 300.63 59.45 298.38 59.45Z" fill="white"/>
<path d="M306.42 51.71C304.83 51.71 304.4 53.52 304.4 54.79V59.27H303.47V50.96H304.4V52.52C304.63 51.53 305.5 50.83 306.51 50.82C306.81 50.82 307.12 50.86 307.41 50.95L307.32 51.86C307.03 51.75 306.72 51.7 306.42 51.71Z" fill="white"/>
<path d="M315.86 55.33H309.1C309.19 57.3 310.3 58.61 312.18 58.61C313.25 58.63 314.3 58.25 315.1 57.53L315.55 58.19C315.55 58.19 314.51 59.44 312.09 59.44C309.67 59.44 308.11 57.65 308.11 55.1C308.11 52.56 309.94 50.8 312.14 50.8C314.34 50.8 315.9 52.45 315.9 54.69C315.91 54.91 315.89 55.12 315.86 55.33ZM312.1 51.62C310.04 51.62 309.2 53.36 309.14 54.52H314.96C314.96 53.45 314.15 51.62 312.1 51.62Z" fill="white"/>
<path d="M322.85 59.27V58.11C322.16 58.96 321.13 59.45 320.04 59.45C318.43 59.45 317.26 58.37 317.26 56.94C317.26 55.51 318.34 54.52 320.57 54.43L322.85 54.34V53.89C322.85 52.37 321.83 51.61 320.52 51.61C319.65 51.61 318.8 51.86 318.07 52.33L317.71 51.65C318.53 51.11 319.5 50.81 320.49 50.81C322.8 50.81 323.8 52.14 323.8 54.34V59.27H322.85V59.27ZM320.48 55.2C318.74 55.29 318.19 56.04 318.19 56.94C318.19 57.84 318.87 58.64 320.21 58.64C321.29 58.61 322.28 58.04 322.84 57.12V55.06L320.48 55.2Z" fill="white"/>
<path d="M328.46 59.45C327.8 59.5 327.18 59.14 326.88 58.55C326.59 57.99 326.58 57.39 326.58 56.04V51.83H325.33V50.99H326.58V48.34H327.53V50.99H329.63V51.83H327.52V56.6C327.52 57.51 327.63 58.61 328.74 58.61C329.05 58.61 329.36 58.53 329.64 58.38L329.73 59.19C329.32 59.38 328.89 59.47 328.46 59.45Z" fill="white"/>
<path d="M338.44 55.33H331.68C331.77 57.3 332.88 58.61 334.76 58.61C335.83 58.63 336.88 58.25 337.68 57.53L338.13 58.19C338.13 58.19 337.09 59.44 334.67 59.44C332.25 59.44 330.69 57.65 330.69 55.1C330.69 52.56 332.52 50.8 334.72 50.8C336.92 50.8 338.48 52.45 338.48 54.69C338.49 54.91 338.47 55.12 338.44 55.33ZM334.67 51.62C332.61 51.62 331.77 53.36 331.71 54.52H337.53C337.54 53.45 336.72 51.62 334.67 51.62Z" fill="white"/>
<path d="M341.48 59.45C341.01 59.42 340.65 59.01 340.68 58.54C340.71 58.11 341.05 57.77 341.48 57.74C341.95 57.71 342.36 58.07 342.39 58.54C342.42 59.01 342.06 59.42 341.59 59.45C341.56 59.45 341.52 59.45 341.48 59.45Z" fill="white"/>
<path d="M126.74 21.36C132.66 21.36 136.26 19.03 136.26 13.12V8.46C136.26 2.54 132.68 0 126.74 0H103.05C96.0701 0 91.2101 4.87 91.2101 10.79V24.96C91.2101 30.88 96.0701 35.54 103.05 35.54H136.26V28.56H103.05C100.72 28.56 100.51 26.23 100.51 26.23V21.37H126.74V21.36ZM100.72 9.51C100.72 9.51 100.72 7.18 103.05 7.18H124.63C126.96 7.18 126.96 10.14 126.96 10.76C126.96 11.38 126.96 14.34 124.63 14.34H100.73V9.51H100.72Z" fill="white"/>
<path d="M180.25 0H149.37V6.98H180.25C182.58 6.98 182.79 9.31 182.79 9.31V14.18H156.56C150.64 14.18 147.04 16.51 147.04 22.42V27.08C147.04 33 150.62 35.54 156.56 35.54H180.25C187.23 35.54 192.1 30.68 192.1 24.75V10.59C192.1 4.85 187.23 0 180.25 0ZM182.58 26.23C182.58 26.23 182.58 28.56 180.25 28.56H158.68C156.35 28.56 156.35 25.6 156.35 24.98C156.35 24.36 156.35 21.4 158.68 21.4H182.58V26.23Z" fill="white"/>
<path d="M10.6101 25.17V10.79C10.6101 10.79 10.61 8.46 12.94 8.46H42.5501V0.220001H11.8801C4.90005 0.220001 0.0500488 5.08 0.0500488 11.01V25.17C0.0500488 31.09 4.92005 35.75 11.89 35.75H42.56V27.51H12.94C10.61 27.5 10.6101 25.17 10.6101 25.17Z" fill="white"/>
<path d="M63.92 10.79C63.92 10.79 63.92 8.46 66.25 8.46H84.23V0.199997H65.19C58.21 0.199997 53.36 5.07 53.36 10.99V35.75H63.94L63.92 10.79Z" fill="white"/>
<path d="M0.0400391 56.1H192.1" stroke="white" stroke-miterlimit="10"/>
</svg>
